#!OML:ASF I:\Actors\actors\Patient Classification 2\Patient 1\Session 1\actor1.ASF
:FULLY-SPECIFIED
:DEGREES
72
root -0.777891 18.6987 5.51764 0.649929 -2.71465 -3.892
lowerback 3.83726 0.123579 1.87818
upperback 0.425209 0.273261 1.62928
thorax -1.71393 0.128116 0.604059
lowerneck -14.0405 -0.388549 -0.882625
upperneck 21.5702 -0.634869 1.26485
head 9.0922 -0.234047 0.504192
rclavicle 8.68751e-015 1.73937e-015
rhumerus -45.2253 -0.319586 -87.5194
rradius 41.9054
rwrist 13.6042
rhand -6.63414 -28.694
rfingers 7.12502
rthumb 19.2227 -57.764
lclavicle 8.68751e-015 1.73937e-015
lhumerus -38.7372 0.193944 93.0666
lradius 38.2083
lwrist -8.16478
lhand -3.78346 -23.7937
lfingers 7.12502
lthumb 21.9619 4.97963
rfemur 6.95033 3.1072 18.5389
rtibia 1.11319e-014
rfoot -17.0531 -10.8356
rtoes -4.23972
lfemur -5.79609 -7.01457 -10.2424
ltibia 22.9842
lfoot -22.4337 12.4086
ltoes -55.8392
73
root -0.777242 18.6988 5.51942 0.673813 -2.69329 -3.8947
lowerback 4.29459 0.156954 2.09774
upperback 0.106588 0.347783 1.49662
thorax -2.29538 0.158031 0.33934
lowerneck -13.8034 -0.43766 -0.814962
upperneck 21.7326 -0.735154 1.31642
head 9.10544 -0.270397 0.499179
rclavicle -1.59416e-015 -4.67144e-015
rhumerus -45.7685 -0.636824 -87.5555
rradius 41.9941
rwrist 13.646
rhand -6.9168 -28.5125
rfingers 7.12502
rthumb 18.9508 -57.6093
lclavicle -1.59416e-015 -4.67144e-015
lhumerus -39.26 -0.116209 93.0208
lradius 38.2936
lwrist -8.05349
lhand -3.83942 -23.8001
lfingers 7.12502
lthumb 21.9082 4.97949
rfemur 6.9347 3.08562 18.5381
rtibia 1.90833e-014
rfoot -17.0667 -10.8257
rtoes -4.30771
lfemur -5.82207 -7.0134 -10.2382
ltibia 22.9824
lfoot -22.4184 12.384
ltoes -55.8124
74
root -0.77689 18.6987 5.52095 0.683921 -2.68314 -3.8805
lowerback 4.49216 0.165143 2.15355
upperback -0.00952555 0.369816 1.44679
thorax -2.52485 0.165931 0.254814
lowerneck -13.6824 -0.437492 -0.760591
upperneck 21.7322 -0.7494 1.32027
head 9.08276 -0.272632 0.489788
rclavicle -1.55863e-015 1.59587e-014
rhumerus -46.0191 -0.78135 -87.5639
rradius 42.08
rwrist 13.6798
rhand -7.42512 -28.3208
rfingers 7.12502
rthumb 18.4619 -57.4647
lclavicle -1.55863e-015 1.59587e-014
lhumerus -39.4617 -0.251294 93.0142
lradius 38.3565
lwrist -7.96942
lhand -3.75811 -23.7941
lfingers 7.12502
lthumb 21.9862 4.97632
rfemur 6.92691 3.07516 18.5226
rtibia 9.54166e-015
rfoot -17.0662 -10.8583
rtoes -4.61067
lfemur -5.83937 -6.93039 -10.2427
ltibia 22.9899
lfoot -22.3632 12.3252
ltoes -55.7609
75
root -0.776272 18.6987 5.52241 0.682988 -2.68054 -3.87917
lowerback 4.54284 0.170558 2.14835
upperback -0.0038051 0.37852 1.4553
thorax -2.5474 0.170237 0.265745
lowerneck -13.6926 -0.442531 -0.836505
upperneck 21.7049 -0.759322 1.41069
head 9.07596 -0.273694 0.532164
rclavicle 2.89305e-015 -2.81839e-014
rhumerus -46.1048 -0.781148 -87.5602
rradius 42.1653
rwrist 13.6322
rhand -7.49292 -28.3232
rfingers 7.12502
rthumb 18.3967 -57.4733
lclavicle 2.89305e-015 -2.81839e-014
lhumerus -39.4542 -0.269711 93.0441
lradius 38.3677
lwrist -7.92086
lhand -3.69953 -23.7743
lfingers 7.12502
lthumb 22.0425 4.98947
rfemur 6.93074 3.07311 18.5173
rtibia 1.59028e-015
rfoot -17.0848 -10.8626
rtoes -4.79703
lfemur -5.83861 -6.88596 -10.2391
ltibia 23.0013
lfoot -22.3838 12.2814
ltoes -55.7276
76
root -0.775473 18.6987 5.52323 0.684339 -2.67683 -3.88765
lowerback 4.5944 0.185752 2.16521
upperback 0.0188635 0.400997 1.46276
thorax -2.5527 0.181324 0.26231
lowerneck -13.6714 -0.469535 -0.890085
upperneck 21.5726 -0.795485 1.46548
head 9.02726 -0.289413 0.555237
rclavicle -6.71675e-016 -3.72721e-016
rhumerus -46.1809 -0.720555 -87.5958
rradius 42.232
rwrist 13.5951
rhand -7.50187 -28.5075
rfingers 7.12502
rthumb 18.3881 -57.6584
lclavicle -6.71675e-016 -3.72721e-016
lhumerus -39.4346 -0.295103 93.0809
lradius 38.3845
lwrist -7.90842
lhand -3.72707 -23.7816
lfingers 7.12502
lthumb 22.016 4.98531
rfemur 6.93643 3.06993 18.5225
rtibia 0
rfoot -17.0868 -10.831
rtoes -4.81959
lfemur -5.84682 -6.83285 -10.2301
ltibia 23.0135
lfoot -22.3731 12.2748
ltoes -55.8737
77
root -0.775101 18.6982 5.52384 0.674311 -2.67042 -3.88708
lowerback 4.67383 0.19741 2.18175
upperback 0.0498744 0.419124 1.4564
thorax -2.56497 0.19015 0.245003
lowerneck -13.6072 -0.48696 -0.787933
upperneck 21.2971 -0.811883 1.34295
head 8.91985 -0.302848 0.493785
rclavicle -4.8182e-016 3.50979e-015
rhumerus -46.2921 -0.606689 -87.6816
rradius 42.2967
rwrist 13.6196
rhand -7.59063 -28.7735
rfingers 7.12502
rthumb 18.3027 -57.9324
lclavicle -4.8182e-016 3.50979e-015
lhumerus -39.4194 -0.344098 93.1028
lradius 38.4126
lwrist -7.89851
lhand -3.76592 -23.8286
lfingers 7.12502
lthumb 21.9787 4.94272
rfemur 6.95071 3.06381 18.5223
rtibia 2.22639e-014
rfoot -17.0816 -10.8196
rtoes -4.9682
lfemur -5.84945 -6.82572 -10.2357
ltibia 23.0307
lfoot -22.3389 12.281
ltoes -55.9669
78
root -0.774441 18.6968 5.52414 0.63679 -2.6628 -3.87839
lowerback 4.78583 0.200994 2.16765
upperback 0.105278 0.425665 1.46396
thorax -2.57083 0.193815 0.259842
lowerneck -13.5708 -0.497023 -0.705801
upperneck 20.8953 -0.80324 1.18229
head 8.77436 -0.310349 0.42573
rclavicle -4.09295e-015 1.56294e-014
rhumerus -46.4581 -0.413743 -87.7864
rradius 42.4258
rwrist 13.5579
rhand -6.3066 -29.4117
rfingers 7.12502
rthumb 19.5376 -58.45
lclavicle -4.09295e-015 1.56294e-014
lhumerus -39.3735 -0.347344 93.1357
lradius 38.4492
lwrist -7.81366
lhand -3.74712 -23.8348
lfingers 7.12502
lthumb 21.9968 4.9344
rfemur 6.98638 3.05765 18.5114
rtibia 1.59028e-014
rfoot -17.0905 -10.8219
rtoes -5.28084
lfemur -5.8181 -6.93198 -10.2616
ltibia 23.0574
lfoot -22.4001 12.2682
ltoes -55.8217
79
root -0.7732 18.6956 5.5229 0.595146 -2.64079 -3.86977
lowerback 4.94417 0.207137 2.15591
upperback 0.184052 0.436408 1.46171
thorax -2.57845 0.199567 0.26281
lowerneck -13.5413 -0.517442 -0.715178
upperneck 20.2394 -0.820888 1.17811
head 8.54599 -0.321292 0.422822
rclavicle 3.66509e-015 4.55962e-015
rhumerus -46.6244 -0.152733 -87.9684
rradius 42.5805
rwrist 13.4021
rhand -5.11027 -29.8306
rfingers 7.12502
rthumb 20.6875 -58.7481
lclavicle 3.66509e-015 4.55962e-015
lhumerus -39.319 -0.396868 93.1628
lradius 38.5458
lwrist -7.63422
lhand -3.66576 -23.8256
lfingers 7.12502
lthumb 22.0749 4.93435
rfemur 7.02447 3.03764 18.498
rtibia -6.36111e-015
rfoot -17.1002 -10.8333
rtoes -5.40536
lfemur -5.80075 -6.98897 -10.2831
ltibia 23.0976
lfoot -22.4705 12.2328
ltoes -55.6971
80
root -0.773165 18.6954 5.5212 0.552028 -2.60329 -3.86511
lowerback 5.14571 0.227516 2.16821
upperback 0.292172 0.467501 1.43501
thorax -2.57941 0.215214 0.225484
lowerneck -13.4428 -0.585635 -0.81681
upperneck 19.0999 -0.921141 1.37418
head 8.14701 -0.35926 0.492534
rclavicle 6.32947e-015 -1.99157e-014
rhumerus -46.8356 0.281513 -88.2976
rradius 42.8315
rwrist 13.0392
rhand -8.18862 -28.6902
rfingers 7.12502
rthumb 17.7273 -57.9021
lclavicle 6.32947e-015 -1.99157e-014
lhumerus -39.2428 -0.626471 93.2019
lradius 38.6587
lwrist -7.39324
lhand -3.68616 -23.8981
lfingers 7.12502
lthumb 22.0553 4.86424
rfemur 7.07446 3.00101 18.4976
rtibia 1.27222e-014
rfoot -17.1308 -10.8461
rtoes -5.47072
lfemur -5.80803 -6.93347 -10.2892
ltibia 23.1576
lfoot -22.4422 12.228
ltoes -55.8358
81
root -0.77431 18.696 5.52007 0.502446 -2.55297 -3.88169
lowerback 5.37585 0.252487 2.18227
upperback 0.428206 0.505956 1.44108
thorax -2.56771 0.234908 0.220132
lowerneck -13.1405 -0.757388 -1.08177
upperneck 17.1927 -1.13009 1.64539
head 7.46751 -0.457214 0.601451
rclavicle -3.91901e-015 3.6713e-015
rhumerus -47.1541 1.0375 -88.7588
rradius 43.2251
rwrist 12.1801
rhand -7.31391 -28.9501
rfingers 7.12502
rthumb 18.5689 -58.0839
lclavicle -3.91901e-015 3.6713e-015
lhumerus -39.1713 -0.975151 93.3467
lradius 38.8093
lwrist -7.06576
lhand -3.84481 -23.8657
lfingers 7.12502
lthumb 21.903 4.9145
rfemur 7.14187 2.95066 18.528
rtibia -1.90833e-014
rfoot -17.162 -10.8636
rtoes -5.81232
lfemur -5.82503 -6.84974 -10.265
ltibia 23.2372
lfoot -22.3496 12.2117
ltoes -56.0575
